<?xml version="1.0" encoding="utf-8"?>
<!DOCTYPE svg PUBLIC "-//W3C//DTD SVG 1.0//EN" "http://www.w3.org/TR/2001/REC-SVG-20010904/DTD/svg10.dtd">
<svg version="1.0" xmlns="http://www.w3.org/2000/svg" width="466px" height="499px" viewBox="0 0 466 499" preserveAspectRatio="xMidYMid meet">
 <g fill="#ffffff">
  <path d="M177 405 c-16.2 -0.6 -19.4 -2 -23.8 -10.4 l-2.7 -5.1 0 -81 0 -81.1 2.5 -4.9 c2.1 -3.9 3.7 -5.5 7.9 -7.7 l5.4 -2.8 120.8 0.2 120.7 0.3 4.4 3 c3.2 2.3 4.9 4.5 6.5 8.5 l2.2 5.5 0.1 78.3 c0 53.2 -0.3 79.7 -1.1 82.6 -1.3 5.4 -5.6 10.8 -10.6 13.2 -3.6 1.8 -8.1 1.9 -111.3 1.9 -59.1 0.1 -113.6 -0.2 -121 -0.5z m120.8 -11 c81.1 0 101.2 -0.3 101.2 -1.3 0 -0.7 -6 -6.8 -13.3 -13.6 -7.2 -6.8 -25 -23.8 -39.4 -37.7 -15.1 -14.7 -26.9 -25.4 -28 -25.4 -1 0 -6.5 4.2 -12.3 9.2 -19.1 16.7 -22.1 16.6 -42 -1.3 -4.9 -4.3 -9.6 -7.9 -10.5 -7.9 -0.9 0 -15.4 12.9 -32.2 28.8 -16.8 15.8 -34.9 32.7 -40.2 37.5 -5.3 4.9 -9.7 9.4 -9.9 10.2 -0.5 2.1 2.4 2.4 14.3 2 6.1 -0.3 56.6 -0.5 112.3 -0.5z m-122.2 -19.3 c7.1 -6.7 25.5 -24.1 40.9 -38.7 15.4 -14.5 28.1 -26.9 28.3 -27.6 0.3 -1.2 -0.6 -2.1 -24.8 -24.4 -8 -7.4 -24 -22.3 -35.7 -33.2 -11.6 -10.9 -21.9 -19.8 -22.7 -19.8 -1.4 0 -1.6 7.9 -1.6 78 0 65.2 0.2 78 1.4 78 0.7 0 7.1 -5.5 14.2 -12.3z m235.4 -64.1 c0 -42 -0.3 -77.1 -0.6 -78 -1 -2.6 -2.3 -1.9 -9.3 4.7 -3.6 3.4 -21.8 20.3 -40.4 37.6 -19 17.7 -33.7 32.1 -33.7 33 0 1 11.1 12.3 24.7 25.2 13.6 12.9 31.8 30.3 40.5 38.7 8.6 8.3 16.4 15.2 17.3 15.2 1.3 0 1.5 -8.1 1.5 -76.4z m-120.3 15.1 c5.3 -2.9 108.3 -99.3 108.3 -101.3 0 -1.2 -16.1 -1.4 -113.5 -1.4 -95.8 0 -113.5 0.2 -113.5 1.4 0 1.9 99.7 94.7 107.3 99.9 4.3 2.9 7.9 3.4 11.4 1.4z"/>
  <path d="M80.9 374.5 c-5.3 -1.7 -13 -8.1 -16.5 -13.7 -3.9 -6.1 -5.7 -14.7 -4.5 -21.2 1.3 -7.2 3.1 -11.1 7.7 -17.2 4 -5.3 72.3 -81.4 73 -81.4 0.2 0 0.4 2.9 0.4 6.4 l0 6.3 -16.2 18.4 c-8.8 10.1 -22.2 25.1 -29.7 33.3 -25.1 27.4 -26.1 28.9 -26.1 39.3 0 10.6 8.3 19.6 18.3 19.7 2.8 0.1 7.3 -0.7 10 -1.7 4.9 -2 7.8 -4.9 33 -33.5 l10.7 -12.3 0 7.4 0 7.3 -12.8 14.5 c-16 17.9 -22.9 24.5 -28.7 27 -6 2.7 -13 3.2 -18.6 1.4z"/>
  <path d="M93.1 339.4 c-1.2 -1.5 -2.1 -3.9 -2.1 -5.5 0 -3 4.3 -8.9 6.5 -8.9 2.2 0 6.5 5.9 6.5 8.9 0 3.7 -3.5 8.1 -6.5 8.1 -1.4 0 -3.2 -1.1 -4.4 -2.6z"/>
  <path d="M113 250.2 c0 -4 -0.4 -6.2 -1.1 -6.2 -0.7 0 -4.5 -1.6 -8.5 -3.5 -8.5 -4.1 -9.5 -4.2 -12 -1.4 -3.5 4 -13.5 11.9 -14.9 11.9 -3.4 0 -25.5 -23.5 -25.5 -27.1 0 -1.2 1.4 -4.2 3.2 -6.8 11.5 -16.7 10.9 -14.6 6.7 -25.6 -1.2 -3.3 -2.3 -6.1 -2.5 -6.3 -0.1 -0.1 -4.9 -1.1 -10.8 -2.1 -15.2 -2.6 -14.6 -1.7 -14.6 -22.1 0 -21.2 -0.6 -20.3 14.7 -23.1 11.1 -2.1 11.2 -2.1 11.9 -5.3 0.3 -1.7 1.5 -4.8 2.5 -6.8 1.1 -2.1 1.9 -4.4 1.9 -5.3 0 -0.8 -2.9 -5.8 -6.5 -11 -3.6 -5.3 -6.5 -10.4 -6.5 -11.5 0 -3.3 22 -27 25.1 -27 1 0 5.4 2.9 9.8 6.5 7.6 6.2 12.1 8 13.6 5.6 0.3 -0.5 2.9 -1.7 5.8 -2.6 2.8 -1 5.5 -2 5.9 -2.4 0.4 -0.3 1.1 -5.5 1.6 -11.5 0.9 -10.1 1.1 -11.2 3.6 -13.3 2.5 -2.2 3.5 -2.3 16.2 -2.3 14.7 0 18.7 1.1 19.7 5.2 0.3 1.3 0.9 6.7 1.3 12.1 0.7 9.4 0.8 9.9 3.3 10.9 1.4 0.5 4.5 1.9 6.9 2.9 2.3 1 5.1 1.9 6.2 1.9 1.1 0 5.3 -2.9 9.4 -6.5 4.9 -4.3 8.3 -6.5 9.9 -6.5 3.4 0 24.7 22.7 24.7 26.3 0 1.4 -2.8 6.5 -6.5 11.6 -3.6 5.1 -6.5 9.8 -6.5 10.5 0 0.8 1.1 3.8 2.4 6.7 1.2 3 2.6 6.6 2.9 8 0.5 2.1 1.6 2.9 5.1 3.9 l4.5 1.2 -3.2 3.9 c-2.9 3.6 -3.5 3.9 -6.7 3.4 -3.6 -0.6 -8 -4.5 -8 -7.1 0 -0.8 -2 -5.8 -4.5 -11 -2.5 -5.3 -4.2 -10.1 -3.8 -10.8 0.4 -0.6 3.8 -5.2 7.6 -10.3 3.8 -5.1 6.7 -9.6 6.5 -10.2 -0.6 -1.7 -13.8 -15.1 -14.9 -15.1 -0.6 0 -4.1 2.8 -7.7 6.1 -9.8 9 -9.6 9 -20.5 4 -5 -2.3 -10.3 -4.8 -11.7 -5.4 -2.9 -1.5 -3.7 -4.3 -4.6 -15.9 l-0.6 -8.8 -10.7 0 -10.8 0 -0.7 10.3 c-0.4 5.6 -1.3 11.1 -2 12.2 -0.8 1.1 -4.2 3.1 -7.7 4.4 -3.5 1.3 -8.3 3.4 -10.6 4.7 -2.3 1.3 -5.1 2.4 -6.2 2.4 -1.1 0 -5.4 -2.9 -9.5 -6.5 -4.1 -3.6 -8.3 -6.5 -9.3 -6.5 -1.7 0 -15.3 13.9 -15.3 15.6 0 0.4 3.2 4.9 7 10 3.9 5.2 7 10 7 10.8 0 0.8 -1.1 3.6 -2.5 6.3 -1.4 2.6 -3.5 7.8 -4.6 11.5 -1.1 3.7 -2.6 7.2 -3.3 7.7 -0.7 0.6 -6.1 1.8 -11.9 2.8 l-10.7 1.7 0 10.7 c0 12.3 -1 11.2 11.3 12.8 4.3 0.6 8.7 1.5 9.7 2.1 1 0.5 2.6 3.3 3.6 6.2 0.9 2.9 3.2 8.6 5.1 12.7 1.8 4 3.3 7.9 3.3 8.5 0 0.6 -3.1 5.4 -7 10.6 -3.8 5.2 -7 10 -7 10.5 0 1.6 14.3 15.5 15.9 15.5 0.8 0 4.7 -3.1 8.7 -7 3.9 -3.8 7.9 -7 8.9 -7 0.9 0 4.7 1.8 8.3 3.9 3.7 2.2 8.6 4.5 10.9 5.2 5.3 1.5 6.9 3.3 7.7 8.4 0.5 3.7 0.2 4.4 -3.9 9 l-4.5 4.9 0 -6.2z"/>
  <path d="M123.4 205.1 c-6.2 -1.5 -12.8 -5.7 -18.8 -12.2 -14.9 -15.8 -17.1 -39.2 -5.2 -57.6 3.9 -6.2 11.7 -13 18.1 -16 5.2 -2.4 7.2 -2.8 15 -2.8 8.1 0 9.7 0.3 15.6 3.2 13 6.4 22.6 20 25.1 35.6 0.9 6.1 0.8 8.5 -0.6 14.9 -2.6 11.7 -11.1 24.1 -20.7 30.3 -7.3 4.7 -19.6 6.7 -28.5 4.6z m23.2 -13.4 c6.2 -3.1 10.8 -8.2 14.3 -15.7 2.2 -4.7 2.6 -6.9 2.6 -15 0 -8.1 -0.4 -10.3 -2.6 -15 -3.4 -7.4 -7.6 -12 -14.1 -15.5 -4.7 -2.7 -6.2 -3 -14.3 -3 -7.4 0 -9.7 0.4 -13.2 2.3 -12.6 6.7 -19.4 19.8 -18 34.9 1.3 13.7 10.2 25.7 21.8 29.2 6 1.8 17.7 0.8 23.5 -2.2z"/>
  <path d="M180 202 l-5.5 -0.5 8.1 -9 c23.9 -26.6 46.8 -53.4 48.2 -56.3 1.4 -2.9 1.4 -4.5 0.1 -16.5 -2.8 -26.4 -1.2 -40.8 6.3 -56 3.2 -6.4 6 -10.1 12.7 -16.7 13.6 -13.5 26.6 -19.1 45.1 -19.3 12.7 -0.1 21.4 1.8 24.5 5.5 4.4 5.2 4.6 4.7 -13 24.7 -5.5 6.2 -11.5 13.1 -13.3 15.2 l-3.4 3.9 3.4 14.1 3.3 14.1 11.5 4.4 c6.3 2.4 12.7 4.3 14.2 4.4 2 0 4 -1.4 7.6 -5.2 20.6 -22.2 26.5 -28.4 27.6 -29 2.2 -1.2 5.6 0.4 7.2 3.4 2.3 4.4 3.7 26.2 2.4 36.1 -2.8 20.1 -12 38.4 -24.7 49 -13.5 11.2 -29.4 16 -46.2 13.8 -11.7 -1.5 -17.6 -1.4 -21 0.4 -1.6 0.8 -6.6 5.5 -11.2 10.5 l-8.4 9.1 -5.8 -0.3 -5.7 -0.3 10.6 -12.3 c16.9 -19.7 19.5 -21 38.9 -19 9.4 0.9 14.4 0.9 20.1 0.1 24.1 -3.5 41.6 -24.9 44 -53.6 0.8 -10.4 -0.2 -21.7 -2.1 -21.7 -0.7 0 -6.2 5.6 -12.4 12.4 -12.6 14.1 -17.4 18.6 -19.9 18.6 -0.9 0 -8.4 -2.4 -16.7 -5.3 -10.8 -3.9 -15.4 -6 -16.6 -7.8 -2.7 -3.7 -9.8 -34.8 -8.7 -37.9 0.5 -1.4 6.7 -9.2 13.8 -17.4 7.2 -8.2 13 -15.5 13 -16.1 0 -2.8 -16.2 -3.4 -27.3 -1 -18.2 3.8 -34.1 19.3 -39.1 38 -2.6 9.6 -3.1 24.3 -1.2 38.5 2.5 19.9 1.6 22.2 -17.9 44.5 -16.8 19.3 -35.8 40.5 -36.4 40.8 -0.3 0.1 -3.1 0 -6.1 -0.3z"/>
 </g>
</svg>